@startuml
' uncomment the line below if you're using computer with a retina display
' skinparam dpi 300
!define Table(name,desc) class name as "desc" << (T,#FFAAAA) >>
' we use bold for primary key
' green color for unique
' and underscore for not_null
!define primary_key(x) <b>x</b>
!define unique(x) <color:green>x</color>
!define not_null(x) <u>x</u>
' other tags available:
' <i></i>
' <back:COLOR></color>, where color is a color name or html color code
' (#FFAACC)
' see: http://plantuml.com/classes.html#More
hide methods
hide stereotypes

' entities

Table(TimeCard, "TimeCard\n(Containing Entity)") {
primary_key(TimeCardId) LONG
not_null(unique(PersonId)) LONG
not_null(DateShiftStarted) DATE
not null(TimeCardStatus) VARCHAR
}

Table(TimeEntry, "TimeEntry\n(A period of Time planned or booked)") {
primary_key(TimeEntryId) LONG
not_null(unique(TimeEntryId)) LONG
not_null(TimeEntryStatus) VARCHAR
not_null(TimePeriodType) LONG
ActualStartTime DATETIME
ActualFinishTime DATETIME
}

Table(TimeCardNote, "TimeCardNote\n(A note belonging to the TimeCard)") {
primary_key(TimeCardNoteId) LONG
not_null(unique(TimeEntryId)) LONG
not_null(Content) VARCHAR
}

Table(FlexChange, "FlexChange\n(A Flexible Change)") {
primary_key(FlexChangeId) LONG
not_null(unique(TimeEntryId)) LONG
not_null(FlexChangeType) LONG
not_null(FlexChangeReason) LONG
not_null(RequestorId) LONG
}

Table(FlexChangeNote, "FlexChange\n(Note)") {
primary_key(FlexChangeNoteId) LONG
not_null(unique(TimeEntryId)) LONG
not_null(Content) VARCHAR
}

Table(TimeCardEventLog, "TimeCardEventLog\n(Event Log)") {
primary_key(TimeCardEventLogId) LONG
not_null(unique(TimeCardId)) LONG
not_null(unique(TimeEntryId)) LONG
not_null(EventType) LONG
not_null(EventDescription) VARCHAR
not_null(EventInitiator) LONG
}

' relationships
' one-to-one relationship
'user -- user_profile : "A user only \nhas one profile"
' one to may relationship
'user --> session : "A user may have\n many sessions"
' many to many relationship
' Add mark if you like
TimeCard   "1" --> "0..N" TimeEntry : A TimeCard may have multiple TimeEntry records
TimeEntry  "1" --> "0..N" TimeCardNote : A TimeCard may have multiple notes
TimeEntry  "1" --> "0..N" FlexChange   : A TimeCard may have multiple FlexChanges
TimeEntry  "1" --> "0..N" TimeCardEventLog : A TimeCard may have multiple events
FlexChange "1" --> "0..N" FlexChangeNote   : A FlexChange may have multiple notes
@enduml